<svg width="92" height="57" viewBox="0 0 92 57" fill="none" xmlns="http://www.w3.org/2000/svg">
<path fill-rule="evenodd" clip-rule="evenodd" d="M35.5219 24.0845L3.05457 56.0684L0.949219 53.9313L33.7602 21.6088C34.719 20.6643 36.2533 20.6483 37.2316 21.5726L53.1948 36.6546L69.9754 20.9061L72.0284 23.0936L54.9044 39.1643C53.9402 40.0693 52.4379 40.0668 51.4767 39.1586L35.5219 24.0845Z" fill="#242627"/>
<path fill-rule="evenodd" clip-rule="evenodd" d="M77.0284 25.3525L80.1833 11.9327L66.9839 15.9103L77.0284 25.3525ZM83.8965 9.24707C84.0727 8.4977 83.3716 7.83863 82.6345 8.06075L62.8016 14.0374C62.0645 14.2596 61.8443 15.1963 62.4052 15.7235L77.4976 29.911C78.0585 30.4383 78.9798 30.1606 79.156 29.4112L83.8965 9.24707Z" fill="#242627"/>
</svg>
