<svg width="34" height="29" viewBox="0 0 34 29" fill="none" xmlns="http://www.w3.org/2000/svg">
<path d="M29.1432 18.0945C31.4504 15.542 31.2532 11.6 28.7022 9.29102C27.5564 8.253 26.0647 7.67929 24.5197 7.68026H24.0427C24.032 3.79606 20.8831 0.649902 17.0002 0.649902C13.1169 0.649902 9.96897 3.79606 9.95828 7.68026H9.48131C7.93526 7.67881 6.44459 8.253 5.29829 9.29102C2.74778 11.5995 2.55009 15.542 4.85726 18.0945C1.85697 19.6902 -0.0130459 22.8184 6.85299e-05 26.2188V27.8962C6.85299e-05 28.2988 0.325986 28.6255 0.728647 28.6255C1.13131 28.6255 1.45723 28.2988 1.45723 27.8962V26.2188C1.45625 23.15 3.27187 20.3728 6.08127 19.1447C6.25662 19.2595 6.43828 19.365 6.62528 19.4607C6.75497 18.9818 6.9172 18.5122 7.111 18.0552C5.63927 17.199 4.73194 15.6261 4.72612 13.923V13.8987C4.72854 11.2562 6.87105 9.11697 9.51045 9.1194C9.69454 9.11843 9.87863 9.13009 10.0617 9.15294C10.0627 9.15975 10.0632 9.16656 10.0642 9.17336C10.3012 10.5454 10.9399 11.8168 11.9002 12.8247C9.73874 13.9575 8.04406 15.8138 7.111 18.0707C6.9172 18.5272 6.75497 18.9969 6.62528 19.4758C6.41448 20.3218 6.31005 21.1906 6.31442 22.0624V27.8967C6.31442 28.2993 6.64034 28.626 7.043 28.626C7.44566 28.626 7.77158 28.2993 7.77158 27.8967V22.0624C7.76672 18.5044 9.8626 15.279 13.1145 13.8408C15.4071 15.367 18.3807 15.4049 20.7116 13.9381C21.6136 14.3858 22.435 14.9829 23.1402 15.7029C24.8232 17.3886 25.7612 19.679 25.7432 22.0624V27.8967C25.7432 28.2993 26.0696 28.626 26.4718 28.626C26.8739 28.626 27.2003 28.2993 27.2003 27.8967V22.0624C27.2003 21.2543 27.111 20.4492 26.9332 19.6611C26.9317 19.6533 26.9288 19.6465 26.9274 19.6392C27.2659 19.4938 27.5894 19.3173 27.8944 19.1112C30.7252 20.3369 32.5535 23.1325 32.5428 26.2193V27.8967C32.5428 28.2993 32.8692 28.626 33.2713 28.626C33.6735 28.626 33.9999 28.2993 33.9999 27.8967V26.2193C34.0135 22.8184 32.1435 19.6902 29.1432 18.0945ZM20.4391 12.338C20.2371 12.3735 20.0608 12.4936 19.9534 12.6686C17.3514 14.3173 13.9067 13.5423 12.2596 10.9378C11.7982 10.2075 11.5121 9.38097 11.4242 8.52138C11.4266 8.48103 11.4266 8.44018 11.4242 8.39934V7.94281C11.4242 4.85499 13.9252 2.35158 17.01 2.35158C20.0948 2.35158 22.5957 4.85499 22.5957 7.94281V8.39934C22.5933 8.44018 22.5933 8.48103 22.5957 8.52138C22.4277 10.0354 21.6486 11.4142 20.4391 12.338ZM26.5024 18.2302C25.9943 16.9019 25.2142 15.6879 24.2039 14.6717C23.539 14.0018 22.7876 13.4232 21.9696 12.9506C23.0008 11.9262 23.6881 10.6062 23.9363 9.17288C23.9378 9.16607 23.9378 9.15927 23.9392 9.15246C24.1219 9.12961 24.3064 9.11794 24.4905 9.11891C27.128 9.12231 29.2622 11.2645 29.2593 13.9045C29.2559 15.7598 28.182 17.4464 26.5024 18.2302Z" fill="black"/>
</svg>
