<svg width="80" height="19" viewBox="0 0 80 19" fill="none" xmlns="http://www.w3.org/2000/svg">
<path d="M16 8.97104C16 7.86958 16.6522 7 17.5218 7C18.3479 7 19 7.86958 19 8.97104C19 10.0725 18.3479 11 17.4783 11C16.6522 11 16 10.1304 16 8.97104Z" fill="#C3C8C8"/>
<path d="M36.6882 5.69594C36.1538 3.68548 34.9069 2.28689 32.9919 1.50019C32.1458 1.15054 31.2551 1.06313 30.3644 1.01942C28.9838 0.975719 27.6478 1.01942 26.2672 1.01942C26 1.01942 26 1.01942 26 1.28166C26 3.33583 26 5.4337 26 7.48787C26 9.58575 26 11.6399 26 13.7378C26 13.7815 26 13.8689 26 13.9126C26 13.9563 26.0445 14 26.0891 14C26.1336 14 26.2226 14 26.2672 14C26.4899 14 26.7125 14 26.9797 14H28.9838C29.0283 14 29.0283 14 29.0729 14C29.9636 14 31.0324 14 31.3886 13.9563C32.2793 13.8252 33.1255 13.6067 33.9271 13.1259C35.8866 11.9022 36.8664 10.1539 37 7.88124C37 7.13823 36.8664 6.39523 36.6882 5.69594ZM33.3036 9.89171C32.7247 10.7221 31.8785 11.2028 30.8542 11.334C30.587 11.3777 29.5627 11.3777 28.8056 11.3777C28.8056 8.88648 28.8056 6.39523 28.8056 3.90401C28.8056 3.86029 28.8056 3.81659 28.8056 3.77289C28.8056 3.59806 28.8056 3.59806 28.9838 3.59806C29.251 3.59806 29.5627 3.64177 29.83 3.64177C30.2753 3.64177 30.6761 3.68548 31.0769 3.77289C32.9029 4.16624 33.9271 5.56482 34.0607 7.13823C34.1943 8.14347 33.8826 9.06129 33.3036 9.89171Z" fill="#C3C8C8"/>
<path d="M8.61718 14L6.47545 13.9344C5.66633 13.9344 5 13.541 5 12.9836C5 12.4262 5.66633 12 6.42786 12H8.56959C9.37872 12 9.99743 12.459 9.99743 12.9836C10.045 13.5738 9.42631 14 8.61718 14Z" fill="#C3C8C8"/>
<path d="M6.86032 11.3389C6.63734 11.3389 6.4143 11.3389 6.19131 11.2953C4.18421 10.9463 2.97994 9.41944 2.89074 7.80536C2.80153 6.71475 3.11375 5.75503 3.82738 4.96979C4.54102 4.18456 5.43307 3.74832 6.50355 3.66107C6.94958 3.61744 7.44019 3.66107 7.88622 3.57382C8.68901 3.44295 9.26888 3.09396 9.58105 2.35235C9.7595 1.95973 9.84869 1.56711 9.98248 1.13087C10.0271 1.04362 9.98248 1 9.89329 1C9.84869 1 9.84869 1 9.80409 1C8.77826 1 7.75237 1 6.72653 1C6.0129 1.04362 5.29926 1.13087 4.58563 1.34899C2.93534 1.87248 1.64187 2.87584 0.839034 4.40268C0.437611 5.14429 0.169997 5.92952 0.0807922 6.75835C-0.0530149 7.36913 -0.00841254 8.02351 0.125394 8.63423C0.437611 10.1174 1.10665 11.3389 2.2663 12.3423C3.51517 13.3892 4.98705 13.9128 6.63734 13.9563C7.30634 14 7.93081 14 8.59981 14L9.17969 11.5134C9.13503 11.4698 7.57398 11.3389 6.86032 11.3389Z" fill="#C3C8C8"/>
<path d="M22.8705 13.7228C22.8705 10.8581 22.8705 7.99342 22.8705 5.12872C22.8705 4.62047 22.8274 4.11222 22.698 3.60397C22.3529 2.12542 21.5764 1.06271 20.2823 0.415843C19.7216 0.138614 19.1177 0 18.5137 0C18.4706 0 18.4706 0 18.4274 0H16.5294C16.4863 0 16.4431 0 16.4 0C15.7961 0 15.149 0.138614 14.5882 0.415843C13.2941 1.06271 12.5176 2.12542 12.1725 3.60397C12.0431 4.11222 12 4.62047 12 5.12872C12 7.99342 12 10.8581 12 13.7228C12 13.769 12 13.769 12 13.8152C12 13.9076 12.0431 13.9538 12.1294 13.9538C12.1725 13.9538 12.2157 13.9538 12.2588 13.9538C13.0353 13.9538 13.8117 13.9538 14.5882 13.9538C14.6314 13.9538 14.6745 13.9538 14.7176 13.9538C14.8039 13.9538 14.8039 13.9076 14.8039 13.8614V4.62047C14.8039 3.51156 15.6235 2.63367 16.6588 2.63367H18.3412C18.8157 2.63367 19.2471 2.81849 19.549 3.14192L19.5922 3.18812C19.6353 3.23433 19.6784 3.28053 19.6784 3.32674C19.7216 3.37294 19.7216 3.37294 19.7647 3.41915C20.0235 3.74258 20.1529 4.15843 20.1529 4.62047V9.24095C20.1529 10.7195 20.1529 12.198 20.1529 13.6766V13.8614C20.1529 13.9538 20.1961 14 20.2823 14C20.3255 14 20.3686 14 20.4118 14C21.1883 14 21.9647 14 22.7412 14C22.7843 14 22.8274 14 22.8705 14C22.9569 14 23 13.9538 23 13.8614C22.8705 13.769 22.8705 13.769 22.8705 13.7228Z" fill="#C3C8C8"/>
<path d="M70.8087 12.2564C70.8087 13.1352 70.8567 14.0138 70.7607 14.8925C70.6654 16.1412 70.1395 17.2049 69.1356 17.9911C68.5144 18.4536 67.7971 18.6848 67.0806 18.8235C65.5028 19.1473 63.9257 19.0086 62.396 18.5461H62.3482C62.2048 18.4998 62.2048 18.4536 62.2526 18.3611C62.396 17.9449 62.4916 17.4824 62.635 17.0662C62.6828 16.8349 62.7784 16.6037 62.8262 16.4187C62.874 16.3262 62.9218 16.28 63.0174 16.3262C63.6391 16.4187 64.2603 16.5574 64.8816 16.6037C65.5028 16.6499 66.0767 16.6037 66.65 16.4187C67.5105 16.1412 68.0364 15.6325 68.2277 14.7538C68.2277 14.6613 68.2751 14.5225 68.2751 14.4301C68.3231 12.8576 68.3231 11.2852 68.2751 9.71281C68.2277 8.27914 67.0806 7.26172 65.5988 7.40043C64.7383 7.44671 64.021 8.04788 63.7824 8.88038C63.5911 9.52782 63.5911 10.1753 63.7824 10.8228C64.069 11.7014 64.7862 12.2564 65.7901 12.3027C66.0287 12.3027 66.268 12.3489 66.4587 12.3952C67.1279 12.5801 67.4625 12.9964 67.5585 13.6438C67.6065 13.9676 67.5105 14.1526 67.1759 14.3376C66.3154 14.8 65.4555 14.8925 64.5469 14.615C62.635 14.0601 61.44 12.8576 61.1054 10.9615C60.8186 9.43533 61.1054 7.95539 62.1092 6.70673C62.8262 5.78178 63.7824 5.27306 64.9296 5.08807C65.8854 4.94932 66.7933 4.94932 67.7018 5.27306C69.5182 5.87427 70.5701 7.12296 70.8567 8.92659C70.952 9.52782 70.952 10.1753 71 10.7765C70.8087 11.239 70.8087 11.7477 70.8087 12.2564Z" fill="#C3C8C8"/>
<path d="M41.1198 11.4269C41.1198 11.5194 41.2146 11.5658 41.2621 11.6583C42.0687 12.4915 43.0652 12.7692 44.204 12.3989C44.3463 12.3527 44.5361 12.3064 44.6785 12.2601C45.58 11.9823 46.624 12.2601 47.2408 12.9544C47.3831 13.1395 47.3831 13.0933 47.2408 13.2784C46.3392 14.2505 45.2479 14.7597 43.9193 14.9448C42.5432 15.13 41.2621 14.8522 40.1708 14.0653C38.8896 13.1858 38.2253 11.9823 38.0355 10.5011C37.8457 8.78846 38.4151 7.30721 39.7911 6.19629C41.357 4.90021 43.1126 4.71506 45.0106 5.3631C45.4377 5.50196 45.8647 5.7334 46.2443 6.01113C47.1459 6.65917 47.6204 7.49236 47.8576 8.51068C47.9526 8.88104 48 9.25134 48 9.66789C48 9.89936 48 9.89936 47.7627 9.94568C45.58 10.4548 43.3499 10.9177 41.1672 11.4269C41.1672 11.3806 41.1198 11.3806 41.1198 11.4269ZM40.6453 9.94568C40.6927 9.99193 40.7401 9.94568 40.7401 9.94568C41.357 9.80678 42.0213 9.66789 42.6381 9.48274C43.4922 9.29759 44.3938 9.06619 45.2479 8.88104C45.3428 8.88104 45.3902 8.83472 45.3428 8.74215C45.1055 8.04781 44.631 7.53868 43.8244 7.35353C43.3025 7.26089 42.7805 7.26089 42.306 7.39979C41.4045 7.67751 40.8825 8.32553 40.6453 9.15876C40.6453 9.48274 40.5978 9.71421 40.6453 9.94568Z" fill="#C3C8C8"/>
<path d="M72.0467 10.9401C72 10.0487 72.0467 9.15723 72.0467 8.26577C72.0928 6.6102 73.3485 5.37914 75.0699 5.08199C76.0928 4.91219 77.0696 4.99709 77.9536 5.4216C79.1626 5.97345 79.8138 6.90735 79.9533 8.13839C80 8.56289 80 8.98743 80 9.41192C80 10.8552 80 12.2985 80 13.7418C80 13.7843 80 13.7843 80 13.8267C80 14.039 80 13.9965 79.8138 13.9965C79.1159 13.9965 78.4187 13.9965 77.7208 13.9965C77.4419 13.9965 77.4419 14.039 77.4419 13.7418C77.4419 12.1712 77.4419 10.643 77.4419 9.07233C77.4419 8.73268 77.3952 8.43557 77.3024 8.09597C77.163 7.58653 76.744 7.28941 76.1862 7.24694C76 7.24694 75.8138 7.24694 75.6277 7.28941C75.1159 7.37431 74.837 7.67143 74.6976 8.09597C74.6048 8.43557 74.5581 8.73268 74.5581 9.07233C74.5581 10.643 74.5581 12.1712 74.5581 13.7418C74.5581 13.9965 74.6048 13.9541 74.2792 13.9965C73.5813 13.9965 72.8834 13.9965 72.1862 13.9965C72 13.9965 72 13.9965 72 13.8267C72.0467 12.8504 72.0467 11.874 72.0467 10.9401Z" fill="#C3C8C8"/>
<path d="M52.5638 13.9946C51.5135 13.9946 50.5545 13.6056 49.7781 13.0006C49.4585 12.7413 49.2301 12.4387 49.0475 12.0498C48.9562 11.8769 49.0019 11.7473 49.1388 11.6176C49.6412 11.099 50.5088 11.0126 51.1481 11.3583C51.3308 11.4447 51.4678 11.5744 51.6505 11.6608C52.0158 11.8769 52.3811 11.9633 52.7921 11.8769C53.1118 11.7905 53.2945 11.6176 53.3401 11.3151C53.4314 11.0558 53.3401 10.8397 53.0662 10.6668C52.7921 10.4507 52.5181 10.2779 52.1985 10.1482C51.7418 9.93215 51.2852 9.71604 50.7828 9.49999C50.6001 9.41356 50.4632 9.32713 50.2805 9.24069C49.8238 8.93815 49.5498 8.54918 49.4585 7.98735C49.4129 7.55519 49.4129 7.12303 49.5498 6.69087C49.8238 5.82652 50.4632 5.35114 51.3765 5.13505C52.2442 4.91897 53.1575 4.96218 54.0252 5.2647C55.0755 5.61044 55.6234 6.34513 55.8518 7.33914V7.38232C55.8975 7.7713 55.9431 7.72805 55.5321 7.81448C55.1211 7.90091 54.7101 7.85773 54.2991 7.68486C53.9338 7.512 53.5685 7.33914 53.2031 7.12303C53.0662 7.0366 52.9291 6.99341 52.7465 6.95017C52.5638 6.90692 52.3811 6.95017 52.1985 7.0366C51.9245 7.20946 51.8788 7.46876 52.0615 7.72805C52.1528 7.85773 52.2898 7.94416 52.4268 8.03059C52.6552 8.16027 52.8378 8.2467 53.0662 8.33313C53.4314 8.506 53.7968 8.67886 54.1621 8.85172C54.4818 8.98134 54.7558 9.19745 55.0298 9.37031C55.5778 9.75928 55.8975 10.2779 55.9888 10.9261C56.0344 11.488 55.9431 12.0066 55.6691 12.5252C55.4408 12.9141 55.1211 13.2166 54.6645 13.4327C54.0708 13.8217 53.3401 14.0377 52.5638 13.9946Z" fill="#C3C8C8"/>
<path d="M57.0044 9.52064C57.0044 8.1297 57.0044 6.73872 57.0044 5.30427C57.0044 5.26081 57.0044 5.21734 57.0044 5.17387C57.0044 5 57.0044 5 57.2221 5C57.603 5 57.9295 5 58.3104 5C58.8001 5 59.2899 5 59.7796 5C59.9973 5 59.9973 5 59.9973 5.17387C59.9973 5.47815 59.9973 5.73895 59.9973 6.04322C59.9973 8.60781 59.9973 11.1724 59.9973 13.7371C59.9973 14.0413 60.0517 13.9979 59.6708 13.9979C58.8545 13.9979 58.0383 13.9979 57.2221 13.9979C56.95 13.9979 57.0044 13.9979 57.0044 13.824C57.0044 12.3896 57.0044 10.9551 57.0044 9.52064Z" fill="#C3C8C8"/>
<path d="M57 1.97101C57 0.869569 57.6518 0 58.4774 0C59.3029 0 60.0416 0.869569 59.9982 1.97101C59.9982 3.07246 59.3029 4 58.4774 4C57.6952 3.94203 57 3.07246 57 1.97101Z" fill="#C3C8C8"/>
<path d="M71 10.7575C71 10.1122 71 9.5129 70.8564 8.91365C70.5211 7.11595 69.4672 5.8714 67.6952 5.27216C66.7856 4.94949 65.8752 4.94949 64.9174 5.08777C63.768 5.27216 62.8099 5.7792 62.0916 6.70111C61.0858 7.99177 60.8463 9.42072 61.0858 10.9418C61.421 12.8318 62.6184 14.0764 64.5341 14.5834C64.7738 14.6295 65.0129 14.6756 65.2527 14.7217C65.4444 14.7677 65.6361 14.7677 65.8271 14.7677C66.8811 14.7677 67.8388 14.3529 68.3177 13.7998C68.3177 14.0302 68.3177 14.2146 68.3177 14.4451C68.3177 14.5373 68.3177 14.6756 68.2703 14.7677C68.126 15.6436 67.5516 16.1506 66.6894 16.4272C66.115 16.6116 65.5399 16.6577 64.9174 16.6116C64.295 16.5655 63.6718 16.4272 63.0495 16.335C62.9537 16.335 62.9058 16.335 62.8578 16.4272C62.8099 16.6577 62.7142 16.8881 62.6663 17.0725C62.5226 17.4874 62.4268 17.9483 62.2831 18.3632C62.2352 18.5015 62.2831 18.5476 62.3789 18.5476H62.4268C63.9597 19.0085 65.5399 19.1468 67.1208 18.8241C67.8869 18.6859 68.6056 18.4554 69.18 17.9944C70.2339 17.2108 70.7128 16.1506 70.8083 14.9061C70.8564 14.0302 70.8564 13.1544 70.8564 12.2786C71 11.7716 71 11.2645 71 10.7575ZM66.0669 12.3247C64.5822 12.3247 63.3847 11.495 63.3847 10.527C63.3847 10.2505 63.4808 9.97384 63.6718 9.69728C63.6718 9.42072 63.7199 9.19028 63.8161 8.91365C64.1033 8.08396 64.8213 7.48471 65.6361 7.43864C67.0247 7.34645 68.1741 8.22227 68.3177 9.55903C68.5575 9.83559 68.7492 10.1582 68.7492 10.527C68.7011 11.495 67.5035 12.3247 66.0669 12.3247Z" fill="#C3C8C8"/>
</svg>
