<svg width="20" height="20" viewBox="0 0 20 20" fill="none" xmlns="http://www.w3.org/2000/svg">
<path d="M3.77333 4.48038C4.9965 4.48038 5.98806 3.47742 5.98806 2.2402C5.98806 1.00297 4.9965 0 3.77333 0C2.55017 0 1.55859 1.00297 1.55859 2.2402C1.55859 3.47742 2.55017 4.48038 3.77333 4.48038Z" fill="white"/>
<path d="M16.2265 0C17.4495 0 18.4412 1.00271 18.4412 2.2402C18.4412 3.47768 17.4499 4.48 16.2265 4.48C15.003 4.48 14.0117 3.4773 14.0117 2.2402C14.0117 1.00309 15.003 0 16.2265 0Z" fill="white"/>
<path d="M17.8871 4.24512C17.451 4.65673 16.8677 4.91119 16.2253 4.91119C15.5825 4.91119 14.9996 4.65673 14.5635 4.24512C13.6193 4.49731 12.8684 5.23002 12.5797 6.16722C11.764 6.015 10.8973 5.93283 10 5.93283C9.10265 5.93283 8.23637 6.015 7.42025 6.16722C7.13199 5.23002 6.38066 4.49731 5.43689 4.24512C5.00075 4.65673 4.41748 4.91081 3.77508 4.91081C3.13267 4.91081 2.54941 4.65673 2.11328 4.24512C0.899217 4.56963 0 5.68708 0 7.01506V9.34007L0.00598653 9.37604L0.164344 9.4264C0.658504 9.58241 1.12908 9.70132 1.57869 9.79447C1.3713 10.2443 1.25823 10.7173 1.25823 11.2061C1.25823 13.3172 3.32622 15.1416 6.3039 15.983C6.19384 16.2878 6.13282 16.6161 6.13282 16.9592V19.2842L6.13882 19.3206L6.29716 19.3709C7.789 19.842 9.08542 19.9995 10.1524 19.9995C12.2364 19.9995 13.4441 19.3986 13.5186 19.3603L13.6669 19.2842H13.6826V16.9592C13.6826 16.6332 13.628 16.32 13.5284 16.0288C16.5959 15.209 18.7421 13.3562 18.7421 11.2061C18.7421 10.7408 18.6403 10.289 18.4516 9.85884C19.3078 9.67973 19.79 9.44004 19.836 9.41619L19.9843 9.34007H20V7.01506C20.0004 5.68708 19.1015 4.56963 17.8871 4.24512ZM18.1379 11.2061C18.1379 13.1108 16.1324 14.7516 13.2686 15.4741C12.8916 14.85 12.2866 14.3805 11.5701 14.1893C11.1336 14.6009 10.5503 14.8546 9.90791 14.8546C9.26587 14.8546 8.68224 14.6009 8.24611 14.1893C7.5453 14.3763 6.95081 14.8288 6.57233 15.4328C3.7938 14.6899 1.86246 13.0745 1.86246 11.2058C1.86246 10.7548 1.97702 10.3189 2.18666 9.90617C2.85565 10.0114 3.46885 10.055 4.01954 10.055C6.10325 10.055 7.31132 9.45405 7.38582 9.41581L7.53407 9.3397L7.54979 9.34007V7.01468C7.54979 6.92948 7.54567 6.84504 7.53856 6.76211C8.31573 6.62011 9.14233 6.54324 10 6.54324C10.858 6.54324 11.6846 6.62011 12.4618 6.76211C12.4547 6.84542 12.4506 6.92948 12.4506 7.01468V9.3397L12.4566 9.37566L12.6153 9.42565C14.1068 9.89671 15.4032 10.0542 16.4701 10.0542C16.9823 10.0542 17.4401 10.0183 17.8425 9.9626C18.0335 10.3594 18.1379 10.7756 18.1379 11.2061Z" fill="white"/>
<path d="M9.90577 14.4245C11.1287 14.4245 12.1201 13.4217 12.1201 12.1846C12.1201 10.9476 11.1287 9.94482 9.90577 9.94482C8.68281 9.94482 7.69141 10.9476 7.69141 12.1846C7.69141 13.4217 8.68281 14.4245 9.90577 14.4245Z" fill="white"/>
</svg>
